<svg width="900" height="900" viewBox="0 0 900 900" fill="none" xmlns="http://www.w3.org/2000/svg">
  <defs>
    <linearGradient id="bg" x1="170" y1="170" x2="760" y2="760" gradientUnits="userSpaceOnUse">
      <stop stop-color="#111827"/>
      <stop offset="0.55" stop-color="#0F172A"/>
      <stop offset="1" stop-color="#0B1220"/>
    </linearGradient>
    <radialGradient id="p" cx="0" cy="0" r="1" gradientUnits="userSpaceOnUse" gradientTransform="translate(640 260) rotate(135) scale(420 300)">
      <stop stop-color="#FF4F81" stop-opacity="0.8"/>
      <stop offset="1" stop-color="#FF4F81" stop-opacity="0"/>
    </radialGradient>
    <radialGradient id="o" cx="0" cy="0" r="1" gradientUnits="userSpaceOnUse" gradientTransform="translate(250 640) rotate(25) scale(460 320)">
      <stop stop-color="#F59E0B" stop-opacity="0.75"/>
      <stop offset="1" stop-color="#F59E0B" stop-opacity="0"/>
    </radialGradient>
    <clipPath id="clip">
      <circle cx="450" cy="450" r="390"/>
    </clipPath>
  </defs>

  <g clip-path="url(#clip)">
    <rect width="900" height="900" fill="url(#bg)"/>
    <rect width="900" height="900" fill="url(#p)"/>
    <rect width="900" height="900" fill="url(#o)"/>

    <g opacity="0.9">
      <path d="M250 520c0-52 42-94 94-94h212c52 0 94 42 94 94v150H250V520Z" fill="#E5E7EB"/>
      <path d="M330 430c0-54 44-98 98-98h44c54 0 98 44 98 98v44H330v-44Z" fill="#F3F4F6"/>
      <rect x="308" y="574" width="84" height="84" rx="16" fill="#111827" fill-opacity="0.25"/>
      <rect x="408" y="574" width="84" height="84" rx="16" fill="#111827" fill-opacity="0.25"/>
      <rect x="508" y="574" width="84" height="84" rx="16" fill="#111827" fill-opacity="0.25"/>
    </g>
  </g>

  <circle cx="450" cy="450" r="390" stroke="white" stroke-opacity="0.14" stroke-width="2"/>
</svg>
